<svg width="48" height="48" viewBox="0 0 48 48" fill="none" xmlns="http://www.w3.org/2000/svg">
<path d="M18 6.25C18 5.56 18.56 5 19.25 5H28.75C29.0815 5 29.3995 5.1317 29.6339 5.36612C29.8683 5.60054 30 5.91848 30 6.25C30 6.58152 29.8683 6.89946 29.6339 7.13388C29.3995 7.3683 29.0815 7.5 28.75 7.5H19.25C18.56 7.5 18 6.94 18 6.25ZM22.75 26.75C22.75 27.0815 22.8817 27.3995 23.1161 27.6339C23.3505 27.8683 23.6685 28 24 28C24.3315 28 24.6495 27.8683 24.8839 27.6339C25.1183 27.3995 25.25 27.0815 25.25 26.75V17.25C25.25 16.9185 25.1183 16.6005 24.8839 16.3661C24.6495 16.1317 24.3315 16 24 16C23.6685 16 23.3505 16.1317 23.1161 16.3661C22.8817 16.6005 22.75 16.9185 22.75 17.25V26.75ZM24 10C14.611 10 7 17.611 7 27C7 36.389 14.611 44 24 44C33.389 44 41 36.389 41 27C41 17.611 33.389 10 24 10ZM9.5 27C9.5 18.992 15.992 12.5 24 12.5C32.008 12.5 38.5 18.992 38.5 27C38.5 35.008 32.008 41.5 24 41.5C15.992 41.5 9.5 35.008 9.5 27ZM38.135 10.365C37.9005 10.1305 37.5826 9.99884 37.251 9.99884C36.9194 9.99884 36.6015 10.1305 36.367 10.365C36.1325 10.5995 36.0008 10.9174 36.0008 11.249C36.0008 11.5806 36.1325 11.8985 36.367 12.133L38.867 14.633C38.9831 14.7491 39.1209 14.8412 39.2726 14.904C39.4243 14.9668 39.5868 14.9992 39.751 14.9992C39.9152 14.9992 40.0777 14.9668 40.2294 14.904C40.3811 14.8412 40.5189 14.7491 40.635 14.633C40.7511 14.5169 40.8432 14.3791 40.906 14.2274C40.9688 14.0757 41.0012 13.9132 41.0012 13.749C41.0012 13.5848 40.9688 13.4223 40.906 13.2706C40.8432 13.1189 40.7511 12.9811 40.635 12.865L38.135 10.365Z" fill="#001A49" stroke="#001A49"/>
</svg>
